<svg width="13" height="15" viewBox="0 0 13 15" fill="none" xmlns="http://www.w3.org/2000/svg">
<path d="M4.06653 9.94965C4.33318 9.94965 4.58317 9.93299 4.8165 9.89966C5.04982 9.85521 5.27204 9.80522 5.48314 9.74966V10.883C5.27204 10.9607 5.01649 11.0274 4.7165 11.0829C4.42762 11.1385 4.11097 11.1663 3.76654 11.1663C2.97767 11.1663 2.36103 10.9607 1.9166 10.5496C1.48328 10.1274 1.26662 9.41078 1.26662 8.39971V3.21656H0V2.51658L1.33329 1.9666L1.8666 0H2.73324V2.04993H12.2662V3.04989L8.29971 7.23308C9.83299 7.31086 10.933 7.67751 11.5996 8.33304C12.2662 8.98858 12.5996 9.87744 12.5996 10.9996C12.6107 11.7774 12.4385 12.4718 12.0829 13.0829C11.7385 13.694 11.2385 14.1662 10.583 14.4995C9.92743 14.8439 9.13857 15.0106 8.21638 14.9995C7.01642 14.9995 5.96646 14.805 5.06649 14.4162V13.0662C5.57758 13.3106 6.08868 13.4884 6.59977 13.5995C7.12197 13.7106 7.63307 13.7662 8.13305 13.7662C9.13302 13.7662 9.87743 13.4995 10.3663 12.9662C10.8552 12.4329 11.0996 11.7607 11.0996 10.9496C11.0996 10.1385 10.8274 9.51078 10.283 9.06635C9.73855 8.61081 8.83858 8.38304 7.58307 8.38304H6.5831V7.28308L10.4163 3.21656H2.73324V8.33304C2.73324 9.41078 3.17767 9.94965 4.06653 9.94965Z" fill="#292929"/>
</svg>
